<svg xmlns="http://www.w3.org/2000/svg" width="20.033" height="20.055" viewBox="0 0 20.033 20.055">
  <g id="driver" transform="translate(-98.386 -98.48)">
    <path id="Path_1530" data-name="Path 1530" d="M304.04,103.5a5.008,5.008,0,1,0,5.008-5.024A5.016,5.016,0,0,0,304.04,103.5Z" transform="translate(-200.686 0)" fill="#1db854"/>
    <path id="Path_1531" data-name="Path 1531" d="M327.77,603.663h3.642l.5-.454v-3.952A4.536,4.536,0,0,0,327.77,603.663Zm8.59-3.954a5.705,5.705,0,0,1,1.681,3.954h3.8a.425.425,0,0,0,.425-.445,10.054,10.054,0,0,0-3.995-7.6l-2.834,3.334A5.8,5.8,0,0,1,336.36,599.709Zm-3.715-.455v3.938l.613.471h3.569A4.536,4.536,0,0,0,332.645,599.254Z" transform="translate(-223.842 -485.129)" fill="#1db854"/>
    <path id="Path_1532" data-name="Path 1532" d="M104.394,518.362a5.753,5.753,0,0,1,6.549-1.119l2.881-3.39a10.022,10.022,0,0,0-15.438,8.027.42.42,0,0,0,.421.437h3.906A5.706,5.706,0,0,1,104.394,518.362Z" transform="translate(0 -403.783)" fill="#1db854"/>
  </g>
</svg>
