<svg xmlns="http://www.w3.org/2000/svg" width="17.739" height="18" viewBox="0 0 17.739 18">
  <g id="Group_820" data-name="Group 820" transform="translate(-837.191 -282.525)">
    <path id="Path_1514" data-name="Path 1514" d="M851.33,300.525H841.266V289.889l3.355-6.873a.716.716,0,0,1,.736-.491,3.283,3.283,0,0,1,3.273,3.273v2.454h3.845a2.455,2.455,0,0,1,2.455,2.455v.409l-1.145,7.363A2.4,2.4,0,0,1,851.33,300.525Z" fill="#1db854"/>
    <path id="Rectangle_476" data-name="Rectangle 476" d="M1.5,0H3.463a0,0,0,0,1,0,0V10.639a0,0,0,0,1,0,0H1.5A1.5,1.5,0,0,1,0,9.139V1.5A1.5,1.5,0,0,1,1.5,0Z" transform="translate(837.191 289.886)" fill="#1db854"/>
  </g>
</svg>
