<svg xmlns="http://www.w3.org/2000/svg" width="18.002" height="18.002" viewBox="0 0 18.002 18.002">
  <g id="Group_826" data-name="Group 826" transform="translate(-885.879 -285.461)">
    <path id="Path_1536" data-name="Path 1536" d="M903.87,294h-.006a.5.5,0,0,0-.993.04h0s.011.281.011.423a8,8,0,1,1-8-8c.184,0,.545.019.547.019v0h.005a.5.5,0,0,0,.046-.99v-.007l-.055,0h0c-.112-.005-.383-.017-.541-.017a9,9,0,1,0,9,9C903.881,294.306,903.87,294,903.87,294Z" fill="#8e8e93"/>
    <path id="Path_1537" data-name="Path 1537" d="M898.878,286.467h3.294l-7.647,7.647a.5.5,0,0,0,0,.707.5.5,0,0,0,.707,0l7.646-7.647v3.293a.5.5,0,0,0,1,0v-4.5a.5.5,0,0,0-.5-.5h-4.5a.5.5,0,0,0,0,1Z" fill="#8e8e93"/>
  </g>
</svg>
