<svg xmlns="http://www.w3.org/2000/svg" width="18" height="16.2" viewBox="0 0 18 16.2">
  <g id="Group_817" data-name="Group 817" transform="translate(-820.157 -290.6)">
    <g id="Path_1510" data-name="Path 1510" fill="none" stroke-miterlimit="10">
      <path d="M821.171,306.8a.578.578,0,0,0,.142-.016l3.717-.863a.078.078,0,0,1,.056.006,9.864,9.864,0,0,0,4.071.873c4.962,0,9-3.633,9-8.1s-4.038-8.1-9-8.1-9,3.633-9,8.1a7.477,7.477,0,0,0,1.6,4.605.084.084,0,0,1,.01.084l-1.131,2.712a.479.479,0,0,0,.111.528.6.6,0,0,0,.428.171Z" stroke="none"/>
      <path d="M 829.156982421875 305.7999877929688 C 833.5681762695312 305.7999877929688 837.156982421875 302.6149597167969 837.156982421875 298.7000122070312 C 837.156982421875 294.7850646972656 833.5681762695312 291.6000061035156 829.156982421875 291.6000061035156 C 824.7457885742188 291.6000061035156 821.156982421875 294.7850646972656 821.156982421875 298.7000122070312 C 821.156982421875 300.135498046875 821.636962890625 301.5167236328125 822.5450439453125 302.6943969726562 L 822.554931640625 302.7074279785156 C 822.7838134765625 303.0145263671875 822.833740234375 303.4238891601562 822.6854248046875 303.7764892578125 L 821.91796875 305.6167297363281 L 824.8053588867188 304.9467163085938 C 825.042236328125 304.8919372558594 825.2945556640625 304.9190673828125 825.5117797851562 305.0220336914062 C 826.6329345703125 305.5310363769531 827.89306640625 305.7999877929688 829.156982421875 305.7999877929688 M 829.156982421875 306.7999877929688 C 827.7424926757812 306.7999877929688 826.340087890625 306.4985046386719 825.0860595703125 305.927001953125 C 825.0695190429688 305.9180603027344 825.050048828125 305.91650390625 825.030517578125 305.9210205078125 L 821.3135375976562 306.7835388183594 C 821.2670288085938 306.7955322265625 821.2175903320312 306.7999877929688 821.1710815429688 306.7999877929688 C 821.009033203125 306.7999877929688 820.8529663085938 306.739990234375 820.7435302734375 306.6290283203125 C 820.599609375 306.4849853515625 820.5574951171875 306.2825012207031 820.6325073242188 306.1010131835938 L 821.7635498046875 303.3890075683594 C 821.775634765625 303.3605041503906 821.77099609375 303.3290100097656 821.7531127929688 303.3050231933594 C 820.70751953125 301.9490051269531 820.156982421875 300.363525390625 820.156982421875 298.7000122070312 C 820.156982421875 294.2330017089844 824.193603515625 290.6000061035156 829.156982421875 290.6000061035156 C 834.1190795898438 290.6000061035156 838.156982421875 294.2330017089844 838.156982421875 298.7000122070312 C 838.156982421875 303.1670227050781 834.1190795898438 306.7999877929688 829.156982421875 306.7999877929688 Z" stroke="none" fill="#8e8e93"/>
    </g>
    <g id="Group_816" data-name="Group 816" transform="translate(824.562 297.797)">
      <g id="Ellipse_61" data-name="Ellipse 61" fill="none" stroke="#8e8e93" stroke-miterlimit="10" stroke-width="1">
        <circle cx="0.902" cy="0.902" r="0.902" stroke="none"/>
        <circle cx="0.902" cy="0.902" r="0.402" fill="none"/>
      </g>
      <g id="Ellipse_62" data-name="Ellipse 62" transform="translate(3.692)" fill="none" stroke="#8e8e93" stroke-miterlimit="10" stroke-width="1">
        <circle cx="0.902" cy="0.902" r="0.902" stroke="none"/>
        <circle cx="0.902" cy="0.902" r="0.402" fill="none"/>
      </g>
      <g id="Ellipse_63" data-name="Ellipse 63" transform="translate(7.385)" fill="none" stroke="#8e8e93" stroke-miterlimit="10" stroke-width="1">
        <circle cx="0.902" cy="0.902" r="0.902" stroke="none"/>
        <circle cx="0.902" cy="0.902" r="0.402" fill="none"/>
      </g>
    </g>
  </g>
</svg>
