<svg xmlns="http://www.w3.org/2000/svg" width="19.995" height="19.978" viewBox="0 0 19.995 19.978">
  <path id="icon-maintain" d="M964.033,289.471s1.451.634,1.385,3.884a.264.264,0,0,0,.076.194l.994.979a9.708,9.708,0,0,0,.723-4.816s-.035-2.053-3.718-4.788a.276.276,0,0,0-.175-.055,1.458,1.458,0,0,1-1.64-1.6.269.269,0,0,0-.074-.2l-1.221-1.208a.264.264,0,0,0-.372,0l-2.321,2.29a.264.264,0,0,0,0,.376l1.056,1.044a.253.253,0,0,0,.161.075c.52.046,3.039.394,2.017,2.761l-4.869,4.851-.935-.136-5.509,5.445a.25.25,0,0,0-.072.126,2.145,2.145,0,0,0,.606,2.079,2.428,2.428,0,0,0,1.812.721.29.29,0,0,0,.2-.085l5.378-5.519.1-.925,5.565-5.468a.516.516,0,0,1,.825-.032Zm-10.537.613,1.527,1.513a.337.337,0,0,0,.473,0l1.906-1.888a.337.337,0,0,0,0-.477l-1.59-1.572c1.936-4.373-3.629-6.079-3.629-6.079-1.038-.276-.829.511-.829.511,2.178,1.776,1.83,2.358,1.83,2.358a3.8,3.8,0,0,1-2.073,2.839c-1.8.747-3.281-1.744-3.281-1.744-.589-.1-.521.545-.521.545,1.453,6.322,6.187,3.994,6.187,3.994Zm13.451,8.526-5.234-4.985a.336.336,0,0,0-.468.005l-1.951,1.929a.336.336,0,0,0-.007.47l4.959,5.216a.51.51,0,0,0,.308.156.4.4,0,0,0,.256-.092l2.181-2.156a.331.331,0,0,0,.087-.254.4.4,0,0,0-.131-.289Zm-1.342.02-.3.917a.3.3,0,0,1-.266.191h-.976a.3.3,0,0,1-.266-.191l-.3-.917a.292.292,0,0,1,.1-.31l.789-.564a.292.292,0,0,1,.33,0l.789.564a.293.293,0,0,1,.095.31Zm0,0" transform="translate(-947.307 -281.522)" fill="#006dea"/>
</svg>
