<svg xmlns="http://www.w3.org/2000/svg" width="10.375" height="11.36" viewBox="0 0 10.375 11.36">
  <g id="icon-setting" transform="translate(-634.214 -289.507)">
    <g id="Path_1523" data-name="Path 1523" fill="none" stroke-miterlimit="10">
      <path d="M641.247,295.122a1.845,1.845,0,1,1-1.845-1.845,1.845,1.845,0,0,1,1.845,1.845Z" stroke="none"/>
      <path d="M 639.4019775390625 294.2770080566406 C 638.93603515625 294.2770080566406 638.5570068359375 294.6560668945312 638.5570068359375 295.1220092773438 C 638.5570068359375 295.5879516601562 638.93603515625 295.9670104980469 639.4019775390625 295.9670104980469 C 639.867919921875 295.9670104980469 640.2470092773438 295.5879516601562 640.2470092773438 295.1220092773438 C 640.2470092773438 294.6560668945312 639.867919921875 294.2770080566406 639.4019775390625 294.2770080566406 M 639.4019775390625 293.2770080566406 C 640.4210205078125 293.2770080566406 641.2470092773438 294.1029968261719 641.2470092773438 295.1220092773438 C 641.2470092773438 296.1409912109375 640.4210205078125 296.9670104980469 639.4019775390625 296.9670104980469 C 638.3829956054688 296.9670104980469 637.5570068359375 296.1409912109375 637.5570068359375 295.1220092773438 C 637.5570068359375 294.1029968261719 638.3829956054688 293.2770080566406 639.4019775390625 293.2770080566406 Z" stroke="none" fill="#8e8e93"/>
    </g>
    <g id="Path_1524" data-name="Path 1524" fill="none" stroke-miterlimit="10">
      <path d="M635.214,291.615l3.188-1.84a2,2,0,0,1,2,0l3.187,1.84a2,2,0,0,1,1,1.732v3.681a2,2,0,0,1-1,1.732L640.4,300.6a2,2,0,0,1-2,0l-3.188-1.84a2,2,0,0,1-1-1.732v-3.681A2,2,0,0,1,635.214,291.615Z" stroke="none"/>
      <path d="M 639.401611328125 290.5072631835938 C 639.2262573242188 290.5072631835938 639.0535278320312 290.553466796875 638.90185546875 290.6410827636719 L 635.7135620117188 292.4812622070312 C 635.4053955078125 292.6589660644531 635.2139892578125 292.9906921386719 635.2139892578125 293.3469848632812 L 635.2139892578125 297.0280151367188 C 635.2139892578125 297.3843078613281 635.4053955078125 297.7160339355469 635.7138671875 297.8939208984375 L 638.9021606445312 299.7340698242188 C 639.0535278320312 299.821533203125 639.2262573242188 299.8677368164062 639.401611328125 299.8677368164062 C 639.5772094726562 299.8677368164062 639.7503662109375 299.8214111328125 639.9019775390625 299.7339782714844 L 643.0894165039062 297.8937377929688 C 643.3975830078125 297.7160339355469 643.5889892578125 297.3843078613281 643.5889892578125 297.0280151367188 L 643.5889892578125 293.3469848632812 C 643.5889892578125 292.9906921386719 643.3975830078125 292.6589660644531 643.0889892578125 292.4810180664062 L 639.90234375 290.6412353515625 C 639.7503662109375 290.5535888671875 639.5772094726562 290.5072631835938 639.401611328125 290.5072631835938 M 639.401611328125 289.5072326660156 C 639.7470092773438 289.5072326660156 640.092529296875 289.5964965820312 640.4019775390625 289.7749938964844 L 643.5889892578125 291.614990234375 C 644.2080078125 291.9719848632812 644.5889892578125 292.6329956054688 644.5889892578125 293.3469848632812 L 644.5889892578125 297.0280151367188 C 644.5889892578125 297.7420043945312 644.2080078125 298.4030151367188 643.5889892578125 298.760009765625 L 640.4019775390625 300.6000061035156 C 639.7831420898438 300.9569702148438 639.0200805664062 300.95703125 638.4019775390625 300.6000061035156 L 635.2139892578125 298.760009765625 C 634.594970703125 298.4030151367188 634.2139892578125 297.7420043945312 634.2139892578125 297.0280151367188 L 634.2139892578125 293.3469848632812 C 634.2139892578125 292.6329956054688 634.594970703125 291.9719848632812 635.2139892578125 291.614990234375 L 638.4019775390625 289.7749938964844 C 638.7109985351562 289.5964965820312 639.0562744140625 289.5072326660156 639.401611328125 289.5072326660156 Z" stroke="none" fill="#8e8e93"/>
    </g>
  </g>
</svg>
