<svg xmlns="http://www.w3.org/2000/svg" width="11.997" height="9.995" viewBox="0 0 11.997 9.995">
  <path id="icon-car" d="M630.967,296.4a1.815,1.815,0,0,0-1.079-1.507l-.546-2.563a2.241,2.241,0,0,0-2.1-1.7h-4.294a2.242,2.242,0,0,0-2.1,1.7L620.3,294.9a1.817,1.817,0,0,0-1.079,1.507l-.123,1.644a1.589,1.589,0,0,0,.979,1.6,1.3,1.3,0,0,0,2.489.123h5.053a1.3,1.3,0,0,0,2.488-.123,1.587,1.587,0,0,0,.979-1.6Zm-1.266,2.607a.367.367,0,0,0-.283.339.57.57,0,0,1-1.138.022.367.367,0,0,0-.366-.334h-5.637a.366.366,0,0,0-.365.334.57.57,0,0,1-1.138-.022.367.367,0,0,0-.283-.339.847.847,0,0,1-.658-.909l.124-1.643a1.1,1.1,0,0,1,.783-.943.368.368,0,0,0,.26-.308c0-.021,0-.042.005-.063s0-.021,0-.031l.559-2.627a1.5,1.5,0,0,1,1.382-1.119h4.294a1.5,1.5,0,0,1,1.382,1.119l.559,2.626c0,.011,0,.022,0,.033s0,.041.005.061a.368.368,0,0,0,.26.309,1.1,1.1,0,0,1,.784.943l.123,1.643a.847.847,0,0,1-.658.909Zm-7.43-3.768h5.65a.413.413,0,0,0,.325-.137.42.42,0,0,0,.089-.345l-.005-.027-.444-1.929a.711.711,0,0,0-.667-.558h-4.246a.711.711,0,0,0-.667.558l-.444,1.929-.005.027a.4.4,0,0,0,.414.482Zm.747-2.263h4.156l.351,1.53h-4.858Zm-1.189,3.519a.829.829,0,1,0,.829.829.829.829,0,0,0-.829-.829Zm6.534,0a.829.829,0,1,0,.829.829.829.829,0,0,0-.829-.829Zm0,0" transform="translate(-619.097 -290.636)" fill="#8e8e93"/>
</svg>
