<svg xmlns="http://www.w3.org/2000/svg" width="14" height="13" viewBox="0 0 14 13">
  <g id="like" fill="none">
    <path d="M10.062,0A3.826,3.826,0,0,0,7,1.6,3.824,3.824,0,0,0,3.938,0,4.136,4.136,0,0,0,0,4.3,5.7,5.7,0,0,0,1.141,7.5c1.478,2.316,5.2,5.2,5.353,5.32a.816.816,0,0,0,1.012,0c.158-.121,3.875-3,5.353-5.32A5.7,5.7,0,0,0,14,4.3,4.136,4.136,0,0,0,10.062,0Z" stroke="none"/>
    <path d="M 3.93828010559082 1.000005722045898 C 2.318110466003418 1.000005722045898 1 2.480495452880859 1 4.30025577545166 C 1 5.423625946044922 1.500459671020508 6.208085536956787 1.984370231628418 6.966615676879883 C 3.243364334106445 8.939523696899414 6.385486602783203 11.46600532531738 6.999933242797852 11.95042419433594 C 7.610808849334717 11.46985816955566 10.74832820892334 8.952123641967773 12.01539039611816 6.966385841369629 C 12.49946022033691 6.207555770874023 13 5.422885894775391 13 4.30025577545166 C 13 2.480495452880859 11.68190002441406 1.000005722045898 10.06172943115234 1.000005722045898 C 9.188810348510742 1.000005722045898 8.365699768066406 1.435185432434082 7.803470134735107 2.193965911865234 L 6.999619960784912 3.278805732727051 L 6.196269989013672 2.193605422973633 C 5.634730339050293 1.435055732727051 4.81171989440918 1.000005722045898 3.93828010559082 1.000005722045898 M 3.93828010559082 5.7220458984375e-06 C 5.143449783325195 5.7220458984375e-06 6.263060092926025 0.6031255722045898 7 1.598615646362305 C 7.737339973449707 0.6035261154174805 8.857339859008789 5.7220458984375e-06 10.06172943115234 5.7220458984375e-06 C 12.23328018188477 5.7220458984375e-06 14 1.928726196289062 14 4.30025577545166 C 14 5.714895725250244 13.36684989929199 6.707225799560547 12.858229637146 7.504555702209473 C 11.38045024871826 9.820526123046875 7.663449764251709 12.70297527313232 7.505559921264648 12.82431602478027 C 7.203673839569092 13.05777454376221 6.798079013824463 13.05881881713867 6.494060039520264 12.82431602478027 C 6.336559772491455 12.7029857635498 2.619549751281738 9.820915222167969 1.141389846801758 7.504555702209473 C 0.6327199935913086 6.707225799560547 0 5.714895725250244 0 4.30025577545166 C 0 1.929125785827637 1.766730308532715 5.7220458984375e-06 3.93828010559082 5.7220458984375e-06 Z" stroke="none" fill="#8e8e93"/>
  </g>
</svg>
