<svg xmlns="http://www.w3.org/2000/svg" width="16" height="16" viewBox="0 0 16 16">
  <path id="Path_1516" data-name="Path 1516" d="M662.863,341.08h-1.611v-.354a1.476,1.476,0,0,0-1.476-1.476h-8.492a1.476,1.476,0,0,0-1.477,1.476v.136H648.2a.667.667,0,0,0-.666.667v.86a5.771,5.771,0,0,0,.344,1.809,3.25,3.25,0,0,0,.847,1.3,2.329,2.329,0,0,0,1.086.543v.023a5.878,5.878,0,0,0,1.669,4.13,5.609,5.609,0,0,0,2.865,1.588V353.5H652.5a.875.875,0,0,0,0,1.75h6.063a.875.875,0,0,0,0-1.75h-1.843v-1.73a5.665,5.665,0,0,0,2.851-1.591,5.933,5.933,0,0,0,1.68-4.11,2.374,2.374,0,0,0,1.086-.523,3.122,3.122,0,0,0,.848-1.251,5.374,5.374,0,0,0,.347-1.743v-.8A.668.668,0,0,0,662.863,341.08Zm-13.056,4.091a1.936,1.936,0,0,1-1.233-1.307,4.811,4.811,0,0,1-.284-1.478v-.668h1.517Zm7.826-1.056-.645.628a.371.371,0,0,0-.106.327l.152.888a.368.368,0,0,1-.535.389l-.8-.419a.371.371,0,0,0-.343,0l-.8.419a.369.369,0,0,1-.536-.389l.152-.888a.371.371,0,0,0-.106-.327l-.645-.628a.369.369,0,0,1,.2-.63l.892-.13a.369.369,0,0,0,.278-.2l.4-.807a.37.37,0,0,1,.663,0l.4.807a.369.369,0,0,0,.278.2l.892.13A.369.369,0,0,1,657.633,344.115Zm5.136-1.567a4.507,4.507,0,0,1-.286,1.425,1.908,1.908,0,0,1-1.231,1.257V341.9h1.517Z" transform="translate(-647.53 -339.25)" fill="#fb931a"/>
</svg>
