<svg xmlns="http://www.w3.org/2000/svg" width="17" height="20" viewBox="0 0 17 20">
  <path id="Path_1525" data-name="Path 1525" d="M633.138,291.161l-5.056-5.043a.38.38,0,0,0-.252-.11c-.186-.007-.545-.016-1.171.006h-7.783a2.647,2.647,0,0,0-2.628,2.629v14.728A2.647,2.647,0,0,0,618.876,306h11.745a2.646,2.646,0,0,0,2.627-2.629V291.428A.381.381,0,0,0,633.138,291.161Zm-14.013,1.152h5.5a.5.5,0,0,1,0,1h-5.5a.5.5,0,0,1,0-1Zm9,9.031h-9a.5.5,0,0,1,0-1h9a.5.5,0,0,1,0,1Zm0-4.016h-9a.5.5,0,0,1,0-1h9a.5.5,0,0,1,0,1Zm3.628-5.924-2.464-.034h.094a1.557,1.557,0,0,1-1.482-1.312v-2.472a.1.1,0,0,1,.176-.074l3.747,3.721A.1.1,0,0,1,631.753,291.4Z" transform="translate(-616.248 -286)" fill="#fb931a"/>
</svg>
