<svg xmlns="http://www.w3.org/2000/svg" width="15.999" height="17.485" viewBox="0 0 15.999 17.485">
  <path id="Path_1517" data-name="Path 1517" d="M685.2,324.526a5.857,5.857,0,0,1-.619,1.583c-2.827-1.005-2.576-4.331-2.576-4.331-4.216-.291-4.359,4.415-4.359,4.415-.86-.516-1.659-2.657-1.659-2.657a6.243,6.243,0,0,0-2.18,5.147,7.475,7.475,0,0,1-1.286-1.138,13.28,13.28,0,0,0-.571,3.712,8,8,0,0,0,16,0A8.991,8.991,0,0,0,685.2,324.526Zm.4,9.061a6.178,6.178,0,0,1-5.434,3.841.365.365,0,0,1,0-.729,5.341,5.341,0,0,0,4.758-3.385.365.365,0,0,1,.676.273Z" transform="translate(-671.952 -321.765)" fill="#ff3131"/>
</svg>
