<svg xmlns="http://www.w3.org/2000/svg" width="16" height="17.376" viewBox="0 0 16 17.376">
  <path id="Path_1520" data-name="Path 1520" d="M632.4,291.547l-5.883-3.309a2.12,2.12,0,0,0-2.076,0l-5.883,3.309a2.117,2.117,0,0,0-1.079,1.845v6.524a2.116,2.116,0,0,0,1.079,1.845l5.883,3.309a2.115,2.115,0,0,0,2.076,0l5.883-3.309a2.118,2.118,0,0,0,1.079-1.845v-6.524A2.119,2.119,0,0,0,632.4,291.547Zm-3.712,4.831-1.117,1.075-.132.4.252,1.53a.45.45,0,0,1-.656.47l-1.367-.73-.419,0-1.377.713a.45.45,0,0,1-.65-.479l.272-1.526-.127-.4-1.1-1.09a.45.45,0,0,1,.254-.766l1.536-.213.34-.244.695-1.386a.45.45,0,0,1,.807.006l.678,1.394.337.249,1.533.232A.451.451,0,0,1,628.686,296.378Z" transform="translate(-617.477 -287.966)" fill="#006dea"/>
</svg>
