<svg xmlns="http://www.w3.org/2000/svg" width="16" height="16" viewBox="0 0 16 16">
  <path id="Path_1521" data-name="Path 1521" d="M636.779,329.715v2.033a.137.137,0,0,1-.137.138h-7.093a.137.137,0,0,1-.136-.138v-3.427a.162.162,0,0,0-.124-.159,8.838,8.838,0,0,0-1.006,0,.165.165,0,0,0-.127.159v3.428a.137.137,0,0,1-.137.137h-7.093a.137.137,0,0,1-.137-.137v-3.094a.574.574,0,0,1,.573-.574h.888a.439.439,0,0,1,.057,0l.017,0h2.63c-.9-.2-1.578-.6-1.6-1.336a2.01,2.01,0,0,1,2.3-1.959,5.849,5.849,0,0,1,3.08,2.326.137.137,0,0,0,.216,0,5.435,5.435,0,0,1,3.244-2.358,1.993,1.993,0,0,1,2.141,1.979c-.113.746-.8,1.153-1.679,1.349h2.615a.414.414,0,0,1,.056,0h.888a.574.574,0,0,1,.574.574v.967a.432.432,0,0,1-.01.093Zm-10.971-4.153a1,1,0,0,0-1.383.518c-.158.281-.328.655-.076.93.619.661,2.245.659,3.45.549a.137.137,0,0,0,.1-.222,5.469,5.469,0,0,0-2.087-1.775Zm7.53,1.443c.473-.63-.455-1.94-1.452-1.455a6.31,6.31,0,0,0-2.071,1.769.138.138,0,0,0,.1.225,10.766,10.766,0,0,0,1.278.012c.625-.026,1.78-.072,2.147-.55Zm-5.269,13.738h-6.026a.574.574,0,0,1-.573-.575V332.62a.137.137,0,0,1,.137-.138h6.462a.137.137,0,0,1,.137.138v7.985A.137.137,0,0,1,628.069,340.743Zm8.027-.767a.811.811,0,0,1-.017.165.143.143,0,0,0,0,.027h0a.574.574,0,0,1-.573.575H629.5a.137.137,0,0,1-.136-.138V332.62a.137.137,0,0,1,.136-.138h6.462a.137.137,0,0,1,.136.138Zm0,0" transform="translate(-620.789 -324.743)" fill="#443df6"/>
</svg>
