<svg xmlns="http://www.w3.org/2000/svg" width="11.203" height="14.937" viewBox="0 0 11.203 14.937">
  <path id="删_除" data-name="删 除" d="M229.982,84.931h-8.4a1.4,1.4,0,0,0-1.4,1.4V86.8h11.2v-.467a1.4,1.4,0,0,0-1.4-1.4M227.536,84l.206,1.473H223.82L224.026,84h3.51m.112-.934h-3.734a.831.831,0,0,0-.8.694l-.273,1.953a.594.594,0,0,0,.6.693h4.668a.593.593,0,0,0,.6-.694l-.273-1.953a.83.83,0,0,0-.8-.693m2.567,4.668h-8.869a.839.839,0,0,0-.849.93l.765,8.41a1.045,1.045,0,0,0,1.018.93h7a1.045,1.045,0,0,0,1.018-.93l.765-8.41a.839.839,0,0,0-.849-.93m-6.3,8.4h-1.4l-.467-6.535h1.867v6.535Zm2.8,0h-1.867V89.6h1.867Zm2.334,0h-1.4V89.6h1.867Z" transform="translate(-220.179 -83.064)" fill="#8e8e93"/>
</svg>
